<mxfile host="app.diagrams.net" modified="2023-03-29T07:25:22.019Z" agent="Mozilla/5.0 (Windows NT 10.0; Win64; x64) AppleWebKit/537.36 (KHTML, like Gecko) Chrome/111.0.0.0 Safari/537.36" etag="jnfiDmz1DXhXdFMl8Ytv" version="21.1.1" type="device" pages="2">
  <diagram name="architecture" id="9lT-mJ1XG-M_KdO-SJeV">
    <mxGraphModel dx="1354" dy="596" grid="1" gridSize="10" guides="1" tooltips="1" connect="1" arrows="1" fold="1" page="1" pageScale="1" pageWidth="850" pageHeight="1100" math="0" shadow="0">
      <root>
        <mxCell id="0" />
        <mxCell id="1" parent="0" />
        <mxCell id="-EYPpRdThk7vaNsnPLEH-2" value="&lt;font style=&quot;font-size: 18px;&quot;&gt;Data Source&lt;/font&gt;" style="text;html=1;strokeColor=none;fillColor=#D4E1F5;align=center;verticalAlign=middle;whiteSpace=wrap;rounded=0;fontStyle=1" parent="1" vertex="1">
          <mxGeometry x="130" y="150" width="90" height="50" as="geometry" />
        </mxCell>
        <mxCell id="-EYPpRdThk7vaNsnPLEH-5" value="&lt;font style=&quot;font-size: 18px;&quot;&gt;Data Lake&lt;/font&gt;" style="text;html=1;strokeColor=none;fillColor=#D4E1F5;align=center;verticalAlign=middle;whiteSpace=wrap;rounded=0;fontStyle=1" parent="1" vertex="1">
          <mxGeometry x="367" y="150" width="95" height="50" as="geometry" />
        </mxCell>
        <mxCell id="-EYPpRdThk7vaNsnPLEH-12" style="edgeStyle=orthogonalEdgeStyle;rounded=0;orthogonalLoop=1;jettySize=auto;html=1;" parent="1" source="-EYPpRdThk7vaNsnPLEH-7" edge="1">
          <mxGeometry relative="1" as="geometry">
            <mxPoint x="475.0899999999999" y="245" as="targetPoint" />
          </mxGeometry>
        </mxCell>
        <mxCell id="UFIDpqAqGUZScW1vrYJL-3" style="edgeStyle=orthogonalEdgeStyle;rounded=0;orthogonalLoop=1;jettySize=auto;html=1;" parent="1" source="-EYPpRdThk7vaNsnPLEH-7" target="UFIDpqAqGUZScW1vrYJL-2" edge="1">
          <mxGeometry relative="1" as="geometry" />
        </mxCell>
        <mxCell id="-EYPpRdThk7vaNsnPLEH-7" value="" style="shape=image;verticalLabelPosition=bottom;labelBackgroundColor=default;verticalAlign=top;aspect=fixed;imageAspect=0;image=data:image/png,iVBORw0KGgoAAAANSUhEUgAAAT4AAACfCAMAAABX0UX9AAAAyVBMVEX///9Dhvp2dnc8eeFsbG1wcHFycnMwffpqamvf6f7w8PDd5/62trY9g/ptbW+FhYatra3Y2NjPz8/k5OR1ovvw9f/Gxsb5+fnj4+N7e3wzf/rz8/OUlJTb29s/fuuJiYqdnZ4wc+CRkZJjmfuxsbHm7v6iv/zJycknb9+pxPylpabS4P6cnJ3B1P1Ykvr3+v+ZufyLsPxLi/pai+VpnPu0y/2Ps/yXs+yJqet7pvuxxvGlve+90v3L2/1fX2CvyP11nOhIgeNmk+Z8YNTxAAARX0lEQVR4nO1dbXubNhd2iCRTioWNE2Ni+8FxnSUjTpu069qua9bu//+oR68gAUbCxkt7Xbo/bG4AYW4fnTedIwYDBwcHBwcHBwcHBwcHBwcHBwcHBwcHBwcHBwcHBwcHBwcHBwcHjptXXXHz0l/5p8Hri6vhAfjj20t/8Z8Cj8PR2SEYDb+89Ff/CfA4PIg8iivH3/3h7J2dDf8+5tbBZBaG4Sye9vUsL4C3h81cgdHB9413CGBIgQFc3vb4RPsQzCn6HfPjMcJH6Hs86K7JFgPklUAYjJN+H6yOrQ8AeA76HPLdUbJHMLw84K4zAL0qIJj1+WANCOlNQa/0/XksfaOLzvdMNqBGHgXITiuA/dN3c9zUZeJ33/GeUw8VAodRyv4rprB3UiPSP31/HCt8RPzedrvlVIoeSMM5E7cgXovJDH8t+r4dL3zE+funyy0DwR6IJspfk5BaEtirXqqhd/re98Aekb93HW6ZCvaqdiLIMD4te73T989VP/T9aX/LXMzSBvdr3bNLVkPP9B3ttEgMrbMvc5/L3ovEGT3T99QXfaM/bG+ZMfb8VV+P0An90veqD7vBMbRMXa2Y3YDjnp6gI/ql701fwkfw3u6WO+7g9fQAXdErfQ/9CR9xXn63uWXCNB8MO33PJFjsP7hoO1Ylqom+tgFa0SN5lD+b0DdmcxfYf+MgzIBPEI0brPIkT+kxb9eQrQm2ET2WbglZEwKWE6vSt+IDROEBAvlbP06LxOjJ4p5jOnfRxvYrLtY+lOEciCrm5taTKRuEwbZy4c4XKQnoh4MIYOxTdavTN4/kANBfdw22L/tlj1iP1+abblCXuRtjNaXl+WvlWCXrAL35vgvBmlp7VKMv9JXrEezoC3zp0W4wjN6Yb8q+Ko71PwY1JPXnYxxFxTWLFFUO+uWoM/1CdmaNvryS9PEngw543afd4Bg+GO/KVZ+uxoJnUMFzqJCAqO4TCQWUyYsEe5AeFKJWPH9cXIhAkZKt0hcCMW3TDPGPnTz54zL0e2C8q9/wPYNa7g/l5M9TToK/WyXUgiDGAxYOI/d/YDojVCQTMY8BF9oF/5fPQsDp2G+kL/C5XLLAex6x4aKBNf7uX/iI8f3Njr6K9NXp25E/Z3zOyXOTDRNAn4nOhI+TyyG4QUdrlVp54RQ10ceUMCqys0v6T2C/3HIK2bNwXtijAF3LNNC3lOGJ6qPxJ2YUscgP5uUxzifjdlqV8Cmu08eFrxS3Oewkfo+noW9kWvWN2HPrqSpN92EpfUyGsHrmgotfwVCqDpIXJn1cu5CRptPHPvjyt5ksxey3tL7WGfoRhzV/prz9Gsm5WSKZqJC6ryG4Y8RQ0WUPr9tvrvCoZfHqF6IafVk515NZKuwLdRGtcGFFyOjq6u2XPx8fny7eD6/sKDTl7WdMgtD+ExLApYgl9JGeWZiLY1xT+fqFfGonXBVULqQ/mk5fwf80l0YdpDNL19mmrGA0PHu8L5LIl9++jKzc7OHH1jvzZQ4Q7z1hAviDxbgmYNzwUMmManN3MNgizgzTmVA3AvRH0+hb+Pz/cSYFDyzt3WYLp2X4turEvfvnzIZAQ96eZ+r36+ixYOEWN+giqRfpINXIj8k1MRiM94pxooNp9HERzT256oK6BL0fjTSMRo2VK79ZFGIZig7YA7SIHxKCFTfRhw6lryp9fBIIj8bP9k+GBrwzsnd1sUeEbt5byG1r3j7BfLLsybmw56PqbdIwB/nkHcuMtX6MT96FmLy6bQ+r9AVFVAdx3nHZwFhWMFQE6Ob+4du94s1dmCW3veiAix9qnr7CZ1sM5PTSjhbMMC/F138BSSm/cK0dWzaaDpbFsTUXBYxOy7BIfD5cnA2HV1fD4dlTkYv/YuTPkLfn2q+MXhUsPK8gjZ2GtIfjrE25LqvkbThr1CPiQqVeuMA1x4Xb6d0BKy6msoJC9j6elapuNHz/YHm9KW+/EgF9WtPWUz6fMBOrLZvGahqPRyfU4PKctcYt87KZSmXGR1tMyet+H9OUSBvdrjzJVFYg597N28qJQ6kQjfrPkLcXuQ7P11OcyVbkCG4VstQsEnNX+OJ6Xs26zkChDrleU4zTLbcTGn38B1BGT1J/Y5MDN5YVCJbrfvLojBuFV3emIa7anReZaYNwW6jt+RhzfYSlvhvzGE0KxTSVRnkgYwyYyQfequ4kX4cvIgjxa1VSBltY/hj09mR0ZFEf97tBdQnF1SijoxHn79O1gT5T3r7IVCLgbfLxeJ0hmZfDy+IsriRxNJsugslaZKFEHoVLG8L5JFjMw5SbI3FpIkZKw9V0JY7V8318dGI75sE0FjHvs6nKweS0iOXuPeZldMbF6vx/Bv6Gr9q/hpJHRhTFv8C6PElmYiDNJIiMaCEf4hdANM0gzGgRhohMIbuwKMKs0jdtG30fTGUFIuTfp95ERuXrtYE/Y95+7mGvDqQ/wBQi/bh6OK9k8mFaWpKVVva7J1k/By2jN8NUViAi/v0znM/td3cm+TPn7UNUJRD5u4ryXmRqKhB6mp8xUx8f+ZqLGETK4H7cvFQURC2jN8JUVjBiNlMrHHpLUOP3+7lx/hq/SzKLilVID0HgjRvizjgC/ByiHKvZpEWO+axD0N9UtdYs5RcikM6ZzWZeyvbZ9/2yNLw4iehgi1yVsayAB1xKTMzcGFVh8tXIhzsTf+a8/YD6WnlGlZ8XrcN9WnseLomWz8ZNcWlymxNm0t2sKeBfbTepF+XUN6H0MS87WRAE1ZPSzdZqlc1AnuzRUGSU0aeuCPNKvhtCn4G/g+rtTwRqZeHRVfvGsgLuMqvCVqNPhBTX5yb+jHn7/w4sBQs6LeM2wJxp4ckmdQW4Tt+Q+S4fzo38mZyXE2KaaxkJnsM6tBJIwpzm4yXeD+w82m86aqKPsfL92sjfgd1GxyPeAD2AYNFeh0XcZphLSa9Ypp3RfHVzefnuzahO3xXzDD9z+tr4s6nZOAUWfpE94GDR3/Gqz1zUotA3pJ9U+uSCm05fG38duz16Aw9yfdEht9gxFxAe3a5kK31s8jIVp9D39uLigllkbfK28fdS0lfUJ4BdOAuX3LnuoVvOYomjNB0V+pg/fV8cEKajlb8X032DRK5iQCj8cmhdUbgfFpb3S3FelT7qBbM0DHdczs+N/L2g5Q08PZyFTantzng0LzSy8+gkreg+Rh+VPu42X94Z+XtRvy9Z+iWBlXj4cBjZK4O2JumjSpEHbd80+hr5e+GoY7XxMSTxIARg3VcHjrEqTfT2jYTwVOh7X6YMrs8N/FnFvCfFIg7zfBxOeuwQNmZcuLWkCSu6YKHTRwtjRDJaF75G/vr70j8PjBW5orybpkuHv+uWl67wCoX213WVvip/FnW6vyJMrrNYZ2PJ+uHTmyJoGz3RupiRkKkaeVX+Xs7nOy0ujeLHs/XMxZMqkHoylHa5VPS1LnwV/mx6FH5JGJNWYo37Xi5UvvlyIbLNcqHypqb5qvxZdcj8mjCt88pHl8vkRW1psUxeNbt1/gzrvEdhHt/Gp+6aboE5YS83Jvg40oo0ysqVDwb+2qoMNkuJvCifmqa2jm28AQBjDPxNp5qyPmGsUSl3pXr4MqIlQlfD909azbKBv7YaFx8VwLJ4NEKyMqMdE9bExpaFEfBeiEBzD/RQkZ6b+29agRpHK3+tFVaAL0zzBWxRSOFVy6WaQVd2IUg3y03KLu4pFOsKi8TVvnj18rP40MJfe18+8OCMl9CHJK7nfWihjy1alJfYQ3DLz2NNRko9x38Jc+aFGNnGBoO/ru/+FR/389deXQrKhpUklRU/k8aVRh1jrJQE0aQA9vDa/LAngM3uI8MPNQIffhCP5drE3/Xn6nUaFPpomQmwNaIrv9oOkkO1ifK/hEWF8tno7sfXMmOXvP50zt09E3/X7U6LSt8grbUe7EVa60SgSeWWBpETwm7npfPru/MPnz99/frp84fru4Ksgr8fTezd/dV+a42+qIG+YDJpSDDFDYIaAL33qoZgEq+q+ZbFqvan7rDrKmJkMejyJfj70ETfD8OdNfp83nqwyjbSCtymdINCWnCyzCJFIS5RQwf/GLHlx0mUFUZE+RySoTAAS8F6nGXhIFiS4f1BlmUl77Ms65rKt+xp22MdOH+fmybvnWkvOpU+WmLLntmXtXm0MZe6hDAlzqCvSCFsmuZEd/oJlcyyTr/4HKTUUEMyv31e5jwDcDxlfuN6QHcbK0bxEO62scfAuqOyhb/PTZHv9XfTjUv6ghwL3T8BYhE7g4S89TaPMMoiracUVPsQ+JMz6Y1xuQY+EZ8DSPdSDMMcQdH2O4NonCIMvOeY1vYWNRvk5rj7dLZsktzH349mw3FnzNCXJXVEAsTataRvi8mjskfhZRUlfeTfTVaC6M7bZvpoeziftWPAK3pZXxsNVegNciQreQc7hA7wv233e93D3x5WPxnvq1Ukivko6CMyUXQ40w4Yhb5bXLO7FBn7ARroixUdQaiiC22sFUGK2dSXzbwL/7DdyGz3MujEn/m2lBafgQReYMOeR9BHSz+L84he1KWvmb490pcpPRt0pvJODqVFLkOiZSSE9rvKqLDe69qevDuLDD15llXCEJAH4iZD0Bepke9UM9FEGEHDYClTYXX6EhoazlccU4+RTO6m/ALklkgZ4gBY7+NiTd8Hi7uqrASItw0J+qDm2mmTNwCVKcakNsFsCtbpm5eJCdbeT38WYjrUqEV47OTWTWJtAftdhGyFz6asAFRUGh5I+ggZauJAs7zkabWczJo9MzUwgyb6qOaEuAT1XQh9a2UEIoxUIy7RwaVX9ntYWbFndlooNPooY9OCPthC31bViwPCDSUzQ6xcvpE+FKuY1+jjXyRoVgp2sGXPjj+z01J86wJ8vorJi1Q1lGimgzaqKeI3Y6MQ88rMp0of/0xZqfpyVfrG1GEhhuPwjRg77N9nwd5Xq3uCijdMBU7Qt1Q9sElF2+VQ/feGhGsBFm27qlkWcVxDkFKlj1DsD5TNSA5Ah42YjPSZgl0BjZUlj9oEfTFQZm9U3auJhlvFH2hLIJItqWSqYhGSEJllQxG3p7QIWUhPq9LHwujSez4EXbYBMwmf5d6lWsxLLAedkTLqSMmzizlHC2p1+uiOu2WRI3OCxf6xiV9sPLIT9BHRKuxsDqEfNNDHetNtN75pRpedc1vZK7JYJtDnyhlItCR68iV9E5+HVYP5krYLVaIBus8S9sJVsAgmYxq0YKkpCWkgJwxNNxCKGvCQeH5sU/IJiaMBJbdGH6sYP65gvNMWiK3CZ7tvs0ip8DZKEKlRB2+0xIB4bAhss1owNU2xcOcouYR7aUto6yVrrUTgFoqhaAMrpn+TXZp1+si5+Mh3rJjaey35M2ToFTyX3hjwxFyc+EBoqlveE438bcVx4QjFdpsIgTRXvOwVYr31GK2CZznUDPN2NfkSkJnv68l+qkCPzlZ32rN+P33WZQWKM1ZGH7e30k4mYUZmFG0ObKKPMD0mx9PNdkVVf9nNn4RkJlITkdzGcqhFuCH0beRWGdM4rui5EMLKjqfd0e2NCfumriFDfwhQY4ZPQWLRQXrcHWzQ7X0dzfRZOi1GKLtZ0G1wehp1D2a4snR3EDq+LaZR+Lq+LaYZwRKUW9lH3vEzqx1psTHCUej4rqIGxfe9h29B4ZV7be5gPezqFzE40msR6PrSibrw9VVDTzfIAbt4xes3TvzetqhtG7wuMHcbtfJnkaG3RewjugM4gNVNIfrHqj/d2nUP4gp/PX0LimDn09cGYn9z6rehRP5z5+XJPej8jkpt6vZbQ5/EYRjGJ35l0UCkq3vC0+H83X3v8Xv8qnjq+n5eqfccewz3f3R8L/Qdw7/u7dASr153An03+QkL6B0cHBwcHBwcHBwcHBwcHBwcHBwcHBwcHBwcHBwcHBwcHBwcHE6M/wNcu076p2c2QgAAAABJRU5ErkJggg==;" parent="1" vertex="1">
          <mxGeometry x="635" y="215" width="120" height="60" as="geometry" />
        </mxCell>
        <mxCell id="-EYPpRdThk7vaNsnPLEH-8" value="&lt;font style=&quot;font-size: 18px;&quot;&gt;Data Warehouse&lt;/font&gt;" style="text;html=1;strokeColor=none;fillColor=#D4E1F5;align=center;verticalAlign=middle;whiteSpace=wrap;rounded=0;fontStyle=1" parent="1" vertex="1">
          <mxGeometry x="645" y="150" width="115" height="50" as="geometry" />
        </mxCell>
        <mxCell id="-EYPpRdThk7vaNsnPLEH-9" value="" style="shape=image;verticalLabelPosition=bottom;labelBackgroundColor=default;verticalAlign=top;aspect=fixed;imageAspect=0;image=data:image/png,iVBORw0KGgoAAAANSUhEUgAAAYUAAACBCAMAAAAYG1bYAAAAwFBMVEX////xXkkMDA0AAAC7u7vg4OChoaH6+vrxXEdtbW7xWUP39/cuLi7xWEGWlpcBAQTp6enwVDzKysrW1tb96eb+9vXwUjnyaVb+8O5QUFHzc2H3p52xsbFYWFn4sajv7+/6yML0g3T70s35vrfyalf5xL3829f1j4L0hXf4ta3zdmX839v3o5jCwsJjY2R1dXaGhoYzMzT2mY5BQUIZGRojIyS1tbX1jX9/f3/wSzBERET0g3Vzc3RRUVKQkJEUFBXbu+4LAAAQkUlEQVR4nO1deWOiPhMWqZrGUkUBXbXeV622HrXXu7v9/t/qBQXkmFwY2i4/nz9bHCAPyUzmSi53wQUXXPAvoFRKTbTZnE4mU8NM7QbZQLPfnQ0Gr92JIV+2OdkqlqXr1vt4O5QvPjMwZmOsYRsabmwf5Mo2Ry2sIeUApKHFVK747KCreMPkDBRuNyXK7i90X7YjHuO2ROnZgTEPjZPNg3Ivi4fpAGMlDKQvJQnPEoyWpsQGqjWSInoW4+AgvStDeKZgLmIkHEaq0T/XoDG2moYA2fZku+joCJY6NFDOAv56nh7tjmEObODFxWQNYYhOehlhFBg3hN+T82COGlFlo+snVvSLhg5h4C/cWGnMFw0cHDusLJOp6eEgPA8QbrUnk+XYk45al8kQgGH53+phn2COxkF9ijSrK87DdK6HlTKyXGXfdScbwn2pr/GPo+upZt9uMRqRlWQ8EvtujZkSM07v/fu5/9IuZlIAr9hbIvw/9SPqGlmtPr/A5hLFlDIenHh0OcavsnxWnWIMV3HZvfhVxYKkJzgb5sIdMa3v/625iI4iwosh36CZ3QZgGAU//OVx8qGBLMXwocbwGH/YQvwq9UrSE5wNo+Wu00rAebSNbyCwNeMxl0Zhb4UHvR+45DjTUEMWC7/UfATqNcRC9Kr8D2dhCW3jsD5jefmGC8IGQZ+cLnJZwNLmQgZY8FYfhIJzAfA6OOuK0qWN3MNMg38Hrkjy9EIGWMjN3ZHTfSsm12wRtrw0s/VhZpE4CCsBVzvLs5GywELbXX1Qw//TPbQgeTy0JpAUs90g/8j58v0x9yxVefuFLLDw8O6tGq/uZ94HFazPg222RtelZleh/sbG+3ExM9vuJhGNpe2ds8BCbuEtJLg1aprm9BUxBhRpi3Ygfmw+bFssDhzpi+X9/bbl3UyiHykTLPR9xxHSrXfLwuwRtfXDeHs/6ff7k+5MsYie08iPAt48NJYXzcsEC75+FoI9phpCSNM4SAOgSYkhHZENFqYWe9RgJhIRcPhli/1Y3NhkggVoq5wu5DpUb7LBwoOS+KNOBjyXmX2WERZgj0WK0KUmPGWFBeNrJ4M2l/r0P4uF0upvUoc5ZbcsH6ghNwfzp7BQra+KdxVVVWsJBZjjL5wMmuScsO9noVQqFNd3u2ebgYotNikLnrv5K4A0yYnh38tC/arztjsGjSqu2MQsmIMkW7dEkB5w/lYWyofxD4tNzEJuKGcyIOZODknPB/tmFuJik7OQkzMZBgPEkKODnvFzkCUWpjKsVaTM+gOqPxDL9F0ckSUW5GzdkLZ4GM6hPG2PJvlpwplioflOGjohYHs3MFxYhOmAB+e/eBQ3lQyx4Mc+zwSy7JV/AmdjIF1+0Vz1OVMsGKSgvygNqG/PrDa0LGnb8987ioyxkBslDTREabCcxd+YxZYl2b6LA7LGQk6WHwM1Dnl8o2hexlnB5lK516utXm4drFa1cq9cPoy1PBZK5XK1drzBbWdly+d5KvksTJKFL+PArUNY2RiEqzsbiYPN1avbx5tIlmn+13Wxs6r29lJY6F0VHzfhG+yeOsQB7VWPAMV6/wyB32/zP1l+DNd5XeoGeU0abO7V7m5ifoJ8vnL4280uNgwJWKhfA3dw/rC5rUKPVHrb3xwR+wTyFe9fQez/9LjfN3EIOk6Du/hMTqUMSVOQOjvfUQagEh9dYRbKb8Q7qOpzB3im0m+1cgT0SADUO4E3nsmaDMhyU7wNX9kEE7f5UdvEJgETgiwUPmh3UNVfcQVRpv4EkvIm8M5S/BgH+FWcXjV1siTtN3EORFko7xm3UO9iNIizcCvy1iJ+DET1oOre3sD1musJykXrce8E1yuLsFCO5zPFLryJ0tCLG2YMEXWR9+YOQSNN0zDWKGlhlrc5aDp5kUmCzSvWV0p6ZREWHjnuoa6jLAg/klhoq8s1GZC1aA8NJ0l1NFMIGZKnfBd7Vx6qUuHEVZLV6PDKAiy8cd1DjajoquCTVW7EXt1s8OSptgJln8Y2VtJ5vMrxZBwxxQkakFx9Cs7605jxs3DLN5zqJrwmibKgPgq+/IQZdUN4GVa09u4MvO5UEjGyhFVznWKest6Zm4Ur3puoxcjDCT5RMfZAdDBD0AjHwmXmEi4qPG3ThFVzIZ5+yv/OnCy81Lmnm7oJ7bquRFkQdln16ZoBICFHyHVFreT58XfJSeBlIb/J898krBmKgk/3Ke5bipU7h0DwQ8wgGrTE7jvR1wyPGCcLIkue+hGU9lfs8dQN6AehYkLzY+AZ/CMDsliRknAyVEkbBaB2HLiIkwUXlYAwIjGV56DFvxZk4Zf4EBgUDzdSwiEC05gOh9OHJiHLMmlYh2DEq+rubd3pdOouOp3105+zWHBGfvPr7vfvp/X679P1x55oHYcU7KPnRoJYA76U3wnGgOJN0sJTYfTasGwoi65pQCYuQoniOrAhqKp39fjMLiWOOzvD9Xhbqxd6vhnaK1z9IfAQautQ8L6DGqD0n2oxJEkgpiQPh5Le+w036wUhXTFeIe6ShfvBCa9uYC9A8hyMa1Bg4TdMQwWK+kBRHiGXERnkRD20CCz096HGYq05GO9HCVJfqpCVqu4IH1RyFlawwBK8lQNdQVDEUxILTaJ6Dq7z3XBcmeDZwwvx5OAVRMINycxIIR8JnovQzitFFnJkFk6m5wNHkbMDXTzCBulm8pClwEJ1Bz0BpGK/hwU/4Zo7yztBhzzAbUxxxKSRmwftB8Bw2TfPhSF3IAKLpspDThqVbGWkwQJoUe0A9fw9LPiuUdAigicDEty6dYA3A6KOHlLJU4WmI7QBTpEFg8gCnnvLC1/bhSN1gls3YDmg+SRTYeEpfnllDxhJKbJAsVQ9l4QpkK0hGOEpQ448ijcsFRYgpynkkkuRBUresGfxGCK1P2Jbt2p8M1zZU8zdVFgAdROwv0iPBZOy5nsdLIRYUCyR8ALgvlB3lOtTYaEQz/j7YhaoGQD4OBlEViTBLBjQ10C5PhUWoB0DdH16LFATALy8a7HEJU2gmg1YkqkvlgoLkHJSX4DrUmOBPsBuupdYIxmk8N8eCPBA7+8jmyyMGOOLB46dNBQwVZVQi0oWACcONacqHRYAL8pXstBkVjFozilTpliLMYECEogFmn8+nepCIE/pK/UCR3kbwksjZ4i1CtMIkdI4oK9QkIVoKl1ODgtfZyM1edQu0pRtvy1Cgs0c72SANm2CLADj8G+xwJkujAjnHpHBPRl+BAuQdq58GQuG6OByA2HOqNtPZeEL/Uiv6fWrwgu+R4BsxP8WC0NAK0ibHJydI38EC8De+es823HzEzU4krj5wBl1+xEsFDbx/JoPwKWYBgvRE3kO2EqbDXxbN85dq49UWKjHrv6yiCcYS8aze1JvEVHwbd0gFmiJ5+mwwOlSTIEF0Hdh2zaj5L2cw+DKHoYs9SfK9amwAOXcQaObAguwBsCD3EjSbODqCQN5MD4o16fCAuRShAqf5bPQJURutEluIkk38GzdgLAztSwsFRaugcuhtDSIhb/sdySDeByP48seKlI2EkhhR92AFIz8J8WpmgoL8XrmSh5KA4FYOKvVDDli4Bwu2Zxz5uLRwdE3D8yPhFYDF6mwEK8wUe+g2DfEAiH9lQtN8igfbBtC7ZooLKYfA8zIoqjnNFiATCTQTpOtF2jBs+Ny3m9JcDKx+6lCxQuVPLkkKQ0WgHQk+GqIBcCvzgvqIQzuCfHNuYQGShpr61YF0h9oS1IKLABToXIDttaBWBCtbQ6AnvzrnWbUh85KFQPCjMnQgxpTRCpdg5DPQg+oqiOMLcBCXqW/HwWsDs9elqMxO3sHx+zbBiwHtHkunYUemLkP61yQBaHOIwGwo8i+Vu2Pz9TSzIRJuMqWuCbJZgEK/Ocre3gugiyI9EIKAnTjhcdu7I0d67RIJlhbN8B7cHi5ImQq9upA37xzWKhDFSTEqViCiqYjzsdetdC55jCcShytVLVTsul0cJZHA7HO5SH0RVAfozz0rtZ/gBJlXhbW9egHXn55gks8SatMCeKsonrHqBdqndu3P3tV5TFfuU6E0QMJ8BP4NG1OnPLvYQDug+NQqOrNm1fsvCrePcNF57wsHAqT97vH69vi7e1t8e/1r2dYHi1FE35WW87nxi98rnBtqE16zwXvE8YBG9Ns4zOsJY2+dSMsSd7AHSq+aYX6vCw4CBb+kyv/yQqX2CqiEpLGobGXfAnY6D2YbWpuUeLdQ6BnDwTQVhWACAt8Asn6dsXXTINtvbKz8fzBC33DDwNyi38GML3wU6AXSQVYQ2SzUFHJzVDB2mxABLPemL9jIdLDS8kwqYuP0Wa4zN2hqvJZBE5TlcwCNeDK03ePXoBxgEiqY/QUi1IfbvHPBOO4MN7ONxVb68U94ZJZoDuGIBdwXATTq+F3NkKabrEOa0ZRN1BpxLeLOxwerZ8aDSvUqBtHe83j2xWh8ZXLAph7EXhUcH8RlcHy8PmNbHFj2Z8O2y36Wo+0bdTMvOc461xb3BumMRr4Cp1xYBhfY7qD1uzFIjJSWVDvGB2moKhUTAglPnKApxW0+XEv1WTUhyA91oet2VUYPPjUtT1zjFVkxdPc0bXiY+kCMllQd8w2XxyTgbVdKLlaATX8UaH6lJA2AIx9s0udD4Ft2hZ7chi16GwavMU29jHKY0FV1+xTGAoczXcZffO8NvPBfo/kfQDS0QT+hptdnaxSAo3Op54twKz7XDOa2qo7136MrV5UFgSa5dkbYK4Y8gvLpANTXINwSwmDCVvmgDCcSBtTQjRmu0GaD++By7x0G3boc0Xtsh1QmtF2CTQWVMexwMWEqt7c8hxHYuPlk/ODIcFVC6gVYAGud7ZNqCU9ncgguDUQCly04GYhV12T/DpOP/7Teh012cksqOpbtfDy+Ex1V+SPjpJNh7/xY53cb+8gjNW90B1xJgsIa1t2ShdBTwfnQoufBYeHTWy8Dp6fP8GBjtbmEllQd+76XO+s3RNmIv0Hjw4q9WNdFOu9WXLO6ogS6wrb/S6yvEhup8Jg6AVKTMJ4zle/b7SB7ufWSbjpGcYWX4VVr/a22YccbvvNdacQWirq0ZaNQF5Wwfn7U2Boy9XCav24u9l/Bhx6+eeb3eNtrcp/fEvwQXf7z1CL0ef95nG9KvTY3dJ8Q/W0mY03F0bW//rcjwPMh4Bwz4mOFP52ANVVp3hEp7OqxT/SsvdvD4BF0rP/DKraQn3V6XjSawVOTQCjXL86ybqqFbjJ9M7XRv4pFbGWnEhrEQwjAprtSJIAUvruv6aecPwq+bDtfxp+p0LUONqqw8jmGWn4XrhDsNFF4UPCcNeRYY58hpMeWJVR+CkwCI9ny20r4tvTlHaiLs1mO7SPQ5qymC8a/k4k6YFVWcXkpAVsO0hD4U/4fSZ+hoiLZhuHeEA4INuSfe78vw5yWSfCyTk4oD0mnRaT6MCqLIMUX0D6uH+27C1YnY6089jNIoYQDUhfSNGfzW08LIo4a27/W5jEvldbmXaTnyMSxnQQEY+1viTR2cI07Je2jdNkhhEBo6B4e5IlaID+n4Czz/KsSKfhi+Rlu7k8ikdI08bti2ImwrgfYMvSLctadBOc9cgWPxvr7/p4O5I5yTKIkvkwHA2nZlqfqukgJdkXXHDBBRckxv8BCu93r59mcSwAAAAASUVORK5CYII=;" parent="1" vertex="1">
          <mxGeometry x="645" y="397" width="100" height="33.16" as="geometry" />
        </mxCell>
        <mxCell id="-EYPpRdThk7vaNsnPLEH-10" value="" style="shape=image;verticalLabelPosition=bottom;labelBackgroundColor=default;verticalAlign=top;aspect=fixed;imageAspect=0;image=data:image/png,iVBORw0KGgoAAAANSUhEUgAAAOEAAADhCAMAAAAJbSJIAAAA8FBMVEX///8AfZsAfaBZobMAfp+lytX//f8Aepr8/v4Af5u81+L///2sz9pGnrE9mLP5/f4Ae6GSvsvm8PLy+vnE3uMAiKRxr8IyjKjP5unr+PnN3+fa5+wAg5v///oAfqUAgqIejqkAepT4//gAgqaEvMu+4ejf8vUAfZQAe6YAdZfv8vXV6e6Zx9hip74zkqd5vc6w2Nqe0Ntfob44jq3J4u1usrsAfJFhrcKIxdAAcZvE6+oylar9/fLZ5vMKkaJ+tMglja5irriv299Ln6+Ltsxvscmqzt7H2OcAhJLo7PlqrLifztHG2OY+maSl2OE3kLNTH1eIAAAKlElEQVR4nO2dC1saORfHkyHmQpAZGUHQhDgMd5StXbz03tpd29Xd9vt/mzfjhVoFJmMZxb7n16dPfdoQ5s85OZdMhiIEAAAAAAAAAAAAAAAAAAAAAAAAAAAAAAAAAAAAAAAAAAAAAL8FUkuf85bk9mcuW4j7Pn/qa1ounFqNaLgzqm/W3+1UfCQp9Z/6opaKpKO9/XEVewPGCDNb5T9eDK+MKJ/4yn4dGnKJOjXVx5gYQ4ghShisFMPrGxWp6fNX2KLhgYo8Y4KADTwzHo+rgllTqtjD0cuJfuYKrfn8AzUwAWa43C6OGi3f9yVv1Eu1P9mRRzAuT56xn3IbPVFnPCAmIIVS5Y4QOdrbYp6H2X5DS/5MA6vU/mHgGXzU3rHr8c4/cvurXmBNIcgBepZxlSJf1ncD44kPQyS5vKtQ2gSJ+Gg/IiI6bshE8vOCc41OezhmhfqidWbDrBKxGHd5ePcjWHVsFrgYNBXes6lwvnUobclhzS5HNaLhI17dL2NFcXTySonqxAaRBQlB2k+ColKPmKPXz8uG1oIHNkeMu2iBAX8wUbivRlI+n6VIW6gT9aM3Q+0kkOq6Mn3V1blf2PJ4O1Ke2GpoGy4dnI9T9O6ImDHSNGlCKOI3WqWtGChaQeWSb/X67xtZXtJhxqshGVJqe6zh5ODweH19//jktEs1XcXa9QPzjt5l+ehb9ICZXlHbsOQX9xUJ+lgIQ1ifvP9rtGoCJZUT9jXYyxQ3qEbngu02ZHj2MTDKVnNeEEQssDpxr7xpvWKFyh7b65aJKFizZHtdIzas/S1mkcADddxeK5XWTj6NcZMIFa2/k6tUEbwtRabXzRz6ZWcgiGeiIG7XuU5c3M4gu2tvor7p905WyIacfzwKLqxbZZZYiIUXfDwIk1BlI07y2xpOvt5nPcLObde1KgvyRSDiB/iU1JNBHJ007gYoqsPi+4D0xg29Ko46Ft7FA9paqelpbYTQvU04u7CHnyLV32qshEJfTkRThPeaJQcSl9T3y1h5GWk3PEHKIfWf3FFtPPiggjZ6iMLF7NmSwM779KWr9Ks4GlF/2QqpbEcx6+gnVyh1HePdyy2o5WLbsYKHq1mT7PLhciOyzpQLDWEG7Sdfhxx9Zv3NfOamLzwxyFTO54Ecvg9wTgWWRH8qZo34tEtR7kTNN8sPpJdTc3mK+yp86nBaZHg/n9pDcu1vEVx84spGrg28DZe+/iFzc/SXwrWnrt02vGAN5dYG1COzu/RUm5G/guCFzEsh9Q0WOzlNngK3KZ53i+3jXext5udHtNCMDmRSnT/2XTmrr97eHQSeFxjWyW3niMu2ZzxVmyQ3yXN6j5lQ25+vW21CCUbwOMwvnOvSQAgS4K1S6/FsaBsaOSp7QpFBvL+2WRn6P6dkHq5tONAe2cYp7aORmpf2q1jE4tV4kz9WYmxJfsJEzMjfdS71jB3Ew0EzSKXpDToOdwA4ldLfrkXY4OADfayd4m6ZCNI7aSR3kmatjgIRAqdhHTw6Ta/HrBETn2lsRHZNvO/mIecOtg8cKaJYoZtsvcuZZ0cKRJUPawv5uxYbQ3BHohRHlTd/dAueMfEk/+zv09e4GQ8ObGibe2m2rTtLCwuhMsZUo45rNcQpPWAxEa9zd1TZJUQEHZ14z7wxBYLXOF0IaliLEGElOkZI6rdkcqfjaCfXI0eSynCXETFZPMzacC1lItmwtcrZkSGkc3lz1end9UQZsjvMs+vnLXTMlCmmeIqbwioLv4gsjnp5j9LgT5k3njMgaZEZtvc25ZLcFApc0UVPGOHsqJzqgwGJXuSZ+sOqYS9TRzkpVE08RGjSiwlLHNXtqiX6RIKv1k/zijd6zRaJ6Tkpg0L9ReBMjvqP8siGzu1+Rlgl7CR9WAaFVBdZBke1XVqbGBPmdE6FyyLDppG+zjMotEVN0ToqdnfUMFbsLB8ntVfw2bBzG9HSyKLQWvGLyuKo6NCIcj67Jr7uigBvz0/0UzIpTBwVZ3BUVH8lxN1jj8vB16csrrqMzKYwcdTIXDmqw+T07UfW+5KLm3LUFsG5y8iMChFPrFjFbo5K9bnH/nC5jMxotC68lCu/wlEhq1z+bGs2/60tOYmro14E8brTwKxopAzbdhnppNB2kDeZNekxOxGJraOmn3OXaDsQX10uIzvcFoUjl4FOColojnd/sFW1eU7UXdbXiJkol9KU+lEcVVxGOinEqo/JDzxBbKW67hBsZNdeRz77sw3bNy1JoS2iPw/ubWwQVXaYXQ6xiYbp4x5AiI1y2n5OV2hTz/DL9h3aGDsprIi8FPpiaQo59bm8G1NK2HOIkTTcESSfdShR1eCiy0gHG86ihJsOCrntUT31gOldKAiy4TTuoQpdbCjpRUDyyYdUbmCzj+45131yVcjRp8A7fMD06VBe9GIsdXqgzlUh9ZXonz5g+nS43zDNZMchdWSuCtEmwzif8xk2GReMqDncDJ0qdGpqJbruOB0UJq3bedD8nNvpjGSnrZJeWN0opDzcdODf67vYTjbUFWNYKbe7pXTsebUMCmWFeakwdl2BOyikLXTYV8rP7Tab3GMEj1KnnyrUXZEONtcdu4sNW+/sK/byO0Ikw4+i+QalLcUfChvVdFT1n6uXOXnpf31jcjxySnWHNVk77SOcRhrHJ/DfXg1zUWhr12Azxz1v26r+TXrBN40W7kdli6V2KrdIY5vjImuK/Zzv54fjmETfpF60p5hTPtSy+NUz43sH35eMrgjPhuuFm0Z5ZfxvjDR7XYcN21+Cyx3SF1GbIs39OTpvFHJOKw50ado6lFL62m9HtjF8jRavkKWw/bVPyH/15LG62ZHkRqFEFYdsoUQlTSGXVNb/HHiemuT/aK29mFZ3jIP+q/O5j4tOFdIucUBcl0mLbFg/D4wS49EjGBAlMY3XsDIeK7wYXr3/lCvNUy+lXcxSIT/XNFfJ9seM1hMaxZdM4Wbv0H+8R9x157utRfrYfG9fbE52prwL9S2FmtLQhdZtG3Lp79yis9YuY6WaRIy/POazF770z8aDnsDYCzAb3JhDvLp0s6mX2gDhwM2ZvCuFVNem8w0sQRMLHETjM6rDR3HRK2TS6m/WWOAxYYyZlpj9o/CWwuSg9hy4VXVz8kTq23Wp1B9vxyFCPDwwxxN6eZ790Q988/rB+frW7u60xDSXD17cyod8NjPTzI0NL6pmWrTujj8f7tVbaGGFkR92lenkKGJ4y+Nur0Nrmrlrb4Y1rhUm3yh1i+Rkm32DpzkIza/Thfzp737qD7dmY0ozltQ0W9ya7/JH69EO+1+PyQ+FDeLNTIH9hQpXn1s2nHO49NXa76HQxtL6HGZtlj1Hhdl4ngrnZAvro/eD6fNUmAVQuEKAwjmAwhUCFM4BFK4QoHAOoHCFAIVzAIUrBCicAyhcIUDhHP4PFAqX86UrQaLwAXvUJZLTudHlUyDBXmveLttcUCmvk7HLp+BFZw/4XqVS4LmcZF8FXsbm+3o5M1sxWc/ti26WivwcOBzBmHUog5TRs/gWc3oymH0mIYUBHrSX/9V9eaD5ZvFhbNPf4X8wAQAAAAAAAAAAAAAAAAAAAAAAAAAAAAAAAAAAAAAAAAAAAIDfnP8Bky3+ifYvMokAAAAASUVORK5CYII=;" parent="1" vertex="1">
          <mxGeometry x="130" y="200" width="90" height="90" as="geometry" />
        </mxCell>
        <mxCell id="-EYPpRdThk7vaNsnPLEH-14" value="" style="endArrow=classic;startArrow=classic;html=1;rounded=0;exitX=0.5;exitY=0;exitDx=0;exitDy=0;" parent="1" source="-EYPpRdThk7vaNsnPLEH-9" target="-EYPpRdThk7vaNsnPLEH-7" edge="1">
          <mxGeometry width="50" height="50" relative="1" as="geometry">
            <mxPoint x="755" y="360" as="sourcePoint" />
            <mxPoint x="805" y="310" as="targetPoint" />
          </mxGeometry>
        </mxCell>
        <mxCell id="-EYPpRdThk7vaNsnPLEH-22" value="&lt;b&gt;1&lt;/b&gt;" style="ellipse;whiteSpace=wrap;html=1;aspect=fixed;" parent="1" vertex="1">
          <mxGeometry x="236.99" y="207.75" width="20" height="20" as="geometry" />
        </mxCell>
        <mxCell id="-EYPpRdThk7vaNsnPLEH-25" value="&lt;b&gt;2&lt;/b&gt;" style="ellipse;whiteSpace=wrap;html=1;aspect=fixed;" parent="1" vertex="1">
          <mxGeometry x="486" y="207" width="20" height="20" as="geometry" />
        </mxCell>
        <mxCell id="-EYPpRdThk7vaNsnPLEH-26" value="&lt;b&gt;3&lt;/b&gt;" style="ellipse;whiteSpace=wrap;html=1;aspect=fixed;" parent="1" vertex="1">
          <mxGeometry x="575" y="325" width="20" height="20" as="geometry" />
        </mxCell>
        <mxCell id="UFIDpqAqGUZScW1vrYJL-1" value="" style="shape=image;verticalLabelPosition=bottom;labelBackgroundColor=default;verticalAlign=top;aspect=fixed;imageAspect=0;image=data:image/png,iVBORw0KGgoAAAANSUhEUgAAAbwAAABxCAMAAACZb+YzAAABX1BMVEX///8JBCIAUv8AAAAAABpOTVcAABEAAB+/vsV/fYoAABfa2d0qJzvKydAgHTPT0tcAABwVpf8Uof8Wqf8Yr/8Tnv/y8vRPTF4YsP8XrP/n5uk6N0m2trkYFixnZ28UoP8Smf8at/8Rlf8bu/9VVGEdw/8QkP8auf8PjP8ZtP8eyP8i1/8Tm/8Pjf8Nhf8cv/8Lfv+HhowfzP8Mgv8Kev9raHcJdf8AQMEHbf8h0f/c5/8Gaf8Jd/8HbP8EYf8AAAwMASsDXf+cm6Sk7P9CQUyj5f8ATv9zcX0BV/8ARtpWlf/f+P8z2v/r+f+amaIAJnhXn/+h3P+V6v+47/925P+p1v+fy/9srv9Y1v9Xx/+45v+y2v+W0v8hk+sHV7kQiuoAL44GSbEAM5+A1/8AI3EGV+kAQMm5zP8AQ/9Vg/+pv/+ctf+Lqv9/oP/X4v/q8f8ALbsdVc9XdtRztv+Gw/9Jebe4AAANJUlEQVR4nO2d/V/ayBaHQWiCEZSXGhRUEBHxBXzFl6sWawWxFC217Xa199ba3V7vdvfu3rv3///cvM1kkkySCcYyrPP9TZkhkzw5J2fOmQmBgJvab169uuy4NmOiT503r5aX9/Y+XPZ7IExe1X6zvCyz29vY2Ggw6xskKVYno5PZbSxtNPo9ICZSQauT0S1Jmp9fYtY3EOq8fWVhNz+/+iOzPuqlWp0J3aqkudnVLrM+mqVZnf6008xudW5ubmF2ca7b7wEy2an9dhljdrLdzS0sSOwWJybnrvo9SCac2kars6JbnJh4Ojk5y/BRJ2B1VnaSw1yYnVXQSexSqeTidb8Hy4QKWJ2Dx1TMTmKXSCSTk9csdKFF9lYHzG5iUTO7hMwuN56ffNfvQTPJgujcPaZidhK78ZV8PvmOWV+/5YAO4zETKjqJXb5QSbzv9+Aft3R0Gjurx4Rmp6BLjivsCpJKpUr+PbO+vsmMztljJoDH1NiVKuXN18z6+qQOgcc0oZPZQXSSqps/9PssHqsuzdNyR4+ZQzymyq5arW6Wfu/3WTxavXi15yHGNJpdVWa3WWHw+qbO5fIGdmrnEKiUKjq7tTKD109dfugd3doWg9dfdS435t0ClbzqMmGgAthtlf/W7+E/el19WEWSYeZZORpjomYnsTuoMnh9V+dqfkEuuNoEKgVtWm5Ct3XA4NGhqx8XFwG6SUMe0xpjrqlmd7C9vcngUaHO1dwEaaCimt02g0eRugspT+h2d9cYPGrU6U6kEorLzOUkdPgYU3GZ2wo7Bo8uXU/k3GJMYHa7u/sMHl3qXKfGbZJheqCisjvc32LwaNN1qpDHe8wt3WNK6Pb3Dxg86tS5Ttp4zC3gMQ9lds8I4GVqT5xVOz2PiaKxU+TErc/xiKlLpuhyHKhTrad4StrjybrShbj9iWFsojgydT5cqxEP0OXLp9zx5crOHlNm92ybAF6WCztK4OohvjiVQTtNhdz6hEJHwxHDcYKCcx8gDlxasegyMqj6jNIlTdo+pJ+MGFnPSoOtcwLh8Ny//Nz1mgfE65K9x1TM7hkhvHjQXQIXPUZu16mQexee44sjyHGmeYLjSIo/gfDCZD2CggaPtL0OL5LlOZLz96D6sTu89se//6NatvWYCrvnu37Bk65pvegNniTuKEY3vOEQaRdyucP7/WMi+eni5rPEDkGHekyZnZ/wpFHVoO0RwgvGOUiPRnjndcIOXuQGr/0xlUwmPl1cSPjWNuGsfBv1mBK6561DP+EFQ8Ne4QXDUQCcQngjccIheZIzvPbHSSVD9unmQtbnNRuze97yGV4wNOYVXpBbpxdejSNs70lO8NofJ7SCUOlsR8F381mOMjHoWkP7XuDFOYyEMHLNOWB6EB6P7YPcDvFR0QxPwPXRFTqxwMMeBe1SNMJzba/Cixpu23g8LJBLvyrmT+yjzfaXCbkkJLHL5SqtoSGN32eLx5TZeYMXPxnGaOZJUL8/+dERIzw+iu2T5QXYJxQxwRNquD6Izs3w+KxLj2H1Zk+TtldnkhGDvcSzJ8UZckUBvVHLRzbzvPaXWaWOrsAbrwzJap3dKtan2h1idhK7phd40MEZJY4Nh+BtBkgAePEn+O+MpWEoAKwVwgvFsH0wRwbwhFOyDgCeUCNqfqzflZxwHjNnFZw1o92e4TRZewmduodS8prJ5Hiu1BrStCPzuz3U5gcA3ZAv8CTFoMcDJFzgSRoG9OIn2nHuAW+G7Lp6hKfHmlzNEzhZOjySru0vq/LyI2B4yfFxHZ7sPi9+uvj8s+4xlc98ghcYBvcouM/c4YlHGqt4Vj07+uDBs+J5z+w8wZPQKW8NWFQNT/aa46WzIVRntzc/3f6MoPMPXgY8wuKj6j/c4cH7mo+q0QF98GrgrOqu2UiryOG1vywpK/9mVa+pGt6KCZ70+Pt6c3Grhpn+wguMgrhMUP8mgBfR7mt+WoVFHTwRBqdHY+6tzSKF1/6gLnRHvaZcSC99HbKotXNzewbdqW/wivAmVf8mgBfjaYcHw+xsxr21WWTw2m835BXTquFBrymXYys7VnhK9Hnru+XV/orw0tqJh4veH3lE8CR0G9p7jpTV0nq4spLHw1Pc59czBs/16wE8YYZwQKjc4bXfqluEcF4zL8Fr2dCT7c/HqQKSuyCHFxEeNTwJnbaZeR4NV1Ka4eXLO+aIxcjPn0m6InDh+SP1bwJ46z5Gmw8ySRdBdowj/HqDnOEpb19R4cleUzW8CeA1V9zhyfie+QNvBE4Vouo/COBN283z6scxe6HfAOGFiw49kHpvGrYfs28Pg5MMmInCjK0XOcJrg3fZLmHCFdlrFgqu8Jp3v7lv8SKBBx95glaQdYUnwox92JxhCdZD9kKvhJ6YDjv0QNJTaZL2MOf/gPBeqPA2UHiI18wr8DBzBQRdc/ufBKNwhyeewlJLXcuYO8MTxUgWdrHkNp1kA89BqIskKQkJ3wveHuI150yTPBWefcTSvPsXCToU3rCYsWoscj6qJ3DrJFWFYpYL6cUW8Ih7jPBwXlNbLl3esQ03ZasjnLzo9bzRLEbTfF0HEU5rTwzHeh5azpOekpZ6noP+UvDAPMGYGlMfeYXqjs1Dr3m3/QvxKJBKehwjwxWvA89KXkkHjvbRwpNjzVnjJK9gD6/Z3P3FQ8rAwzKIOMy+E8MT4PrWRwbP5DUNkzx5vbQEzxqxNO+effM0CnJ4PAez76TwhCDM+SLweFvZwbPvwSELEtMk7b8bPLtJXh7AMyfIms3Dbx4TdcTw4nV9cQYhvHpWn4Xp8KZHbSXYwLPvMY21PPv2QXgDPii8Pf2RJ8EzT/Jw8Jp3rW+e391BCC9eP0JWRRHA48P10DCSrkcm6WP2QkeGTtLteyCH0CfpI/bt4bV+SHjIPAHvNRV4LdTq9n/t4bUrJPB4rp49RQepw0NX6aMPNT5aPDecFn3pMX2ORDggVMTwLJU8BV5FhnemW93Qrz3t53JZ+qekQ45qxn0mOrzpYhqqCEu2QT4bGTEf5xElpl8YvKYlNVYoVSqbCLzmc4JMGFbOS//Wj4+nMHVmfIYlE4S2x1kWLz4yeNbUWAKmxkoavK+qw7z77d89DEARUVXBLJv0GPIorEdMXR4hPGwlTwlXymUAr9nq1epk+QkvcA7pxc0LQ+iFB9fXe5ErPNXw5nCpMXlfpQxvR3rYvezZ6mT5Ci+QhXlQwbQalT544MT5qPn5TCBneBumcOWpKVzRLK/12z23nfsLD4ld68YYkTp4gVNQ6OLMLp5ARPBWLQUF4DUleF//+A9Z6cBB/sILxPTHHmfYLkMhPOAleimlu8Gzr+Spu9HX/vjvvdH5Di9wDveY8ByKiT54x3C5e8i76bnDs0zy4Ay9Ir/+m7Tq4yi/4QVq8JrAcpByHPrgweczP03wEgCjXOCZwhWD11TYvfZ6QKx8hydGoe1xSNCCpMdGXKQlBHqHV8y4HUJujmzx4kPx4nEkFnMcj0EE8DCL3HXDe+3Lj174Dg/ZVBQU9DsawuNHo84CZtAzvOC0yxFGlVKEGEXyebwQqvM8vjXOkB3hNZbwk7yVAvXw0Ll6SE/iQ6T29RpVoOTbOzy3Qwjqoii4iD/o2I/DbcEjhGea5AGvSTE8PY4LxkfBXJ14TzocyD3guUjbMxgjK2xh90+6wYOL3JVKXsrkNWmGJ6bhPQ1L6RTCQ24yJ/UMz7rIXYVXrVbX6IUXyMT1ubr2xKARnpglodcjPEy4koeGRzO8QIQ3FxhohBcQT0Oc67B6gWdc/5DSFrkXBgNeYB0+T/i4MrGjEl4gMFaL8nUu7PQ6nR7gzaPhijk1VvURXhQsBPcET9OJbZOivsKcl6dVGc5hDbpRWmVbTIN/EMLLEh8hi16AyPF6OnrksAg/izkWPL2sIzxcakx5XZw/8MRYRJOH3HoG9LHPlsAm2jeLEWKBgcCREW47jjl9qUHmYYuKRghbG46F+7DhsP5B9Zpb/sBj8l8NuEEBU8mrMnhUq2GJNXOGSZ4E7yWDR6kaaloTW8lTDI/Bo1caPHNqrAS95toBg0erZHjGSt4KGmtKhsfgUauGvsjdxmsyeNSqYbPIHYQrDB7Faig/VAnfmpPLmb3m1jaDR6sa5pf8IZU8Bo9yNeYcU2OS12TwqFVjwWb9AzA8Bo9eNRbMXjNv8poMHrXqoovcTbGmani7DB6t6s7aLHJn8OhXd9Z5krd9WPVhrTvTg0iFh7zkD/WaawcH5ff32JPH9LDqLuIXuSuVvO2X1/0eH5ODNHjGncya4b289mOHCdODqbuIW65Zltj9cK+NsEzfQV3rIneloPCa/f4y/epaU2MSOmZ1A6HuhDlcKRf+ZAHmYKhrmuRVSn8yhzko6j6FqTEpXCmN/49Z3eBIgge9ZiHPZuQDpe4k8JorifcsiTlY6mo/DbuSeMesbtCkwks+ZXmwAZQEL5WcvGYOcxB1lUjNXvV7EEy9qdO9YlY3oPo/J4fiaVzpF1kAAAAASUVORK5CYII=;" parent="1" vertex="1">
          <mxGeometry x="222.15" y="397" width="129.67" height="33" as="geometry" />
        </mxCell>
        <mxCell id="UFIDpqAqGUZScW1vrYJL-2" value="" style="shape=image;verticalLabelPosition=bottom;labelBackgroundColor=default;verticalAlign=top;aspect=fixed;imageAspect=0;image=data:image/png,iVBORw0KGgoAAAANSUhEUgAAAbQAAABzCAMAAADHcAfMAAABJlBMVEX///9fY2hChfTqQzVcYGU0qFNVWV9RVlxwdHjHycqTlpn7vATm5+eChYlYXGJ4e39obHCoqaza2tswffM7gvT7uABiZms4gPRNUlgre/Pb3N2eoKPS09R8f4LpLhnh4uP29vaztbfJ2vvAwcOKjJDt7u7x9v7f6f2anJ8YokLpNCKmwvlak/VqnPYnpUrpPCxLivTc5/2ErPexyfq73sNFr2Gi063v+PLQ6dbwgHj1q6b3vbn/9+XubGPrSj374d96pfeUtvibu/i80fvN3fyDxZJArVxrvH7j8udTs2zW7Nu94MX5zMj50s/97ewAnTPymZPyk42Pypz8xCn9247uc2v803T957ftX1T/+fD946n8x0T+7cj80W78xTv95K38zVvsWExpT1saAAAR3klEQVR4nO1daXvbNhKWbJaUFImSLVlHJFmUJdnxLTtN3MRNIsdO02yTbrrdHmm73c3//xPLExiAOAYSnTjPw/dDG1MkAOLFDAaDwbBQ0ODrV2++e/T68fe6+3LcGTzePzn5ysfJ/uuLz92WHDi8CRn7KqLth8/dmhwYPKKc+dj/5nO3J4cerxnOfGHLNeSdxzf7EVUnb76L//Xqczcphw6RoJ187f/zH5Gi3M9F7Y7j4gROZI8IgTnuMELtePI6/uuHk1w/fgH4+gTK1kU4rb35rC3KoUVO2heIUD3uJ6R9k6vHLwGBbO0/Tv56Exoij1UP5Pgs8F68vXz77sf4rzeUs4vI/N/P3cZ3DN7ls9PtAx/bz5+8DS788M+Qs4s3r17HXuPX6hJ0FYwSzDJo7idClTTa+9xNScN7f3Bwuh7jdPv5pX8tnM8uvjpJvFkrCtqk60ToTrNo8adBw0kaXf3cTUnh7frBOoPtZ5GWvAAO4xVntLJdjGBVMmjxJ0LJihvt3DnS3m+v89gOZC1LznLSssVPMs4Kr/ZP4t20RytvzOSkZYmnUs4Khe//9d2Jj9cZ7IDmpGWIF5Sz08B6PE04+/bn6IaLbJz7OWkZ4uMpoezJ5bu3T59tx5zd2/p3lvXkpGWHy8Ru3H4fX3kRLtO+vXfv3taHDCvKScsOH2PODt4ylwPOshW1nLTMkMxoB5fM5ZAzHxnWlJOWGZ5G2vH0F/ZyzNnWt9nVlJOWGZ5EZsjBO/byrzFpv2VXU05aZvg9ntK4y79t3ct6UstJywzPI+34O3f524i0e79mV1NOWmaISXvGXf6QkxbiLpO2nkuaGHeTtGexxf8je/mPfE4LcTdJe38qWqYV/oytx7+yqyknLTO8jb1Yz5mrsfGYqR8rJy0zeLFH5PQJuJj4Q+79mWFNOWnZIV5drx8A1v5IBC3DtXVOWoYg22mnzy+9+NqHWNB+zrKinLQM8YREYR2cPvvFC6/9J3MzJCctWzwnrK2fxnEGfwX6ces/mVaTDWne5vhBrdRoF9ulWmU88MxLmJU3psOggEa91p+M1DdjSasn9wW33hdUOunXSm3L8ps9VDe7FpdkDeHV0bhS9x9vl6bjqMUvYPjcx+imv33S/la/jykyIG02HtqOa1nhe/n/cx2nPjYSgc1+w7HjEoICbMeaTjz5/UjSSi6hzHLK/K+juNJikdRaH8sidmtuijRvXHJcN35p1ymFF9/RONX17cjd/9+trb+z3LYuZEBaeei4YEDHhblOPdVLEnjjhqgE265I5Q1HWp1yVkxxVq6Lm13bFJaVlrSxa7PPR5dfPCfCFpv+H7b+h+oHA6xIWrnhpF496fX2BFGA1xd0XlyCM5TQhiJNxdlmSdpspyaqlCdt1LC5B9vJrT9tJ8K2HTm0MrVBQqxE2kj67iHshnjYAowdV1GA1Z16oqcwpKk4q3QVzbacjXRpHGnjdAGEtMKLJ9uRkjx4ypSxu3d2dnO2t6vrEz1WIW1D9e5Rpz9QFjAr8eOVh2sPBM8hSFNwNmqrBooPu5Sa2ljSHjjph9rgbu/yp48H29s08ODscDFv9nq9ZtP/b/Po/PBM2S86LE+aV9f1eNDpDU9ewsDWkB6g208/qCdNwVlZqR2ivrB5U5Mh7YHoxdsFKW56zU5rjaLV6vSai2v5AzosTVq1mBqvVmxBsu8vNSfGXVEBqRLsWupJLWlD0LYuy9mYlxJhpV1OwCFpqRJ0pBXma2m0mr3zPcUzKixLWpU1H3y7q1usD2v1Ypc3LEQLpAAcZ5btOP4abViyfUOc+cWt84/qSENzFlRaGvqVWnyzu+x0DEirCjkTk7YT0XLYEbC2ttbpHS+nJpckbca8otstjQk1o3G9y/S6I5Q1pvf8zpuWEwK8Qb/IqLAUaxrSFJyVYa1utzYhBdwfs1aVw8xrgLQhvctf2gWwXVdI2tlR7yr8x25TSJovbr3FMnbJcqR5bfB+ltPn+m7Wh+9vWYIlK9N7doNfHQyGsASXO/CoJq0m52wEarW6fa5doymo1GowZSak1UgRlm31yyPP86qb46nrFFPtuOr5E1n0z/OWhDVfSx4KXkGD5UgDo63oVASceBXYPaXU71Uwl7uuaEE3aEBbYsz8piRNwVkBjDW7Lmj2JqjUhZZvQlqxlPzLLjFlD/iZ92we6MRmZG6c9WSk+bccGU9tS5E2pl1uuSKbPHgLMLvbKQuwBH6seeIS+oB3dmJUkabi7AH9zREYpQGm9NW6QK0T0oqx24sbRik87IXC1TqK/jySipp/T8fUkFyGNDAVW3KTfgZcfw63yt6gXSNayiZtg/XAHxSkqTgbUdNH3ucV0jSoIGqscWW1NS7t80S0mpGp8VA2q4XoGarIZUijznOB4sPcB5SjcsQOKGs2vE9Omooz0B5VrVNShEOVCEuaYqhGWBCOOufRFbH9SFTkubo8DkuQRrtSzVnBa5BXtZlpa0p7Ty5nYVVUNlyPXpaSVlP5iGm7XaWjhrTaolYrQ5rV9uRPBzgGFLUi8/C80+k0A3Q6Ik1pxtoSpNH5SGQWQsxIHzLqjdpwvFmYAp09XUCvjDQlZ9R60oy1TdI8ulhhSJP7CyIsoFg1H4bX9ubnh9c3Zzc71y8X816auOaVpicgzEmjA9bW7r7QWQmKGhE0K20n86B2KhA1CWnAiBBwRmc02XI/1T6XWCuQNFtjg1wx81diikDsHR41edp6D9WlQpiTRtqvFRN4MxjdM9K3jsTyBKA3g74Sk6bmrNBPxNDStfs+nUpT76GVU99u5Ni4Ed11tui1MPcJYUzajAxYG7E7XaXDm+iUMem9lH9KANrXVMMKSdNwVqDzq7bdxGIhMglI04y0PdbkaDXPJT6PvWPeokQ7R4xJo12OeoCqGjInkYne1m63FRi5JLSLSKtoOCNa3Uo7oHmQdySNriENZn5F1por5Oeando6C23DYhiTlh6FSpBZnQgKsfd1rx+jQmgn+lFAmo4zKrH6mZguREl0ASVNM6O9ZMSnuVDevMcy3MMusk1J8xJ9h+zyQpu8bdzBExv3+gk2SQuJNk2TxnAmDHMgz8C1gwykLDe+AEhTWsysctSbhMesMtW3LIQpaYPkfle9wiLYICM87kuiMNWvT0HZSK6kSNPKWcEz0I7AZk0qEBlUIrDW/kt9TQxrHcQDAUxJIxzgtCMQlMR+TjqX9UwpUCG0J1XypOk5o4PN6s+qOszowIqtDmoyK9flZ1A5dlALZkZDdnC2iClpdI3loe4veJx2I3+rXx+A6tNE73GkQc5cyYw1put8Rw+6OIxVOCHNVoaYLQADrWPU2+0ytghO1ExJS/oLZa6HIMZitE04SlGgA1k2EY3MkgY5k+769zXBPBIkVdZ40ROC2exESk3hhjFdUI+YkkZuRydi5WST6CmUwR9gllpkMKQxnElX/NTdaQQrVgc11DLlJZig0KZg4Qo81UQ9ZUpaYjy6kv2oNKitHRoeRNmhD094pAcTAxySxnImndOGS5IW9wohjd9kYgAkBqkcA+wa61RD0ogR5uLs9QI0H0OW6MIVnek6WTUQy42SNkuHs4nLLX0C0qAZ0jMI2XkIRQ2jVA1Jm61AmrMsaQ0paVYtPVW5Qpv+U5AGtKOBoPkAoobSj182aUURFcIdTvCICZJACRRpILyxuYN9uQCQ7QXi/i9bPQIANSnyCJNH2nUTlGITF0PaLnDvt7DvFmIPPDlH3P9lGyIEljto0z8EXovEZYpe0rPAkAamNNy6muLIbFIzJQ29KUVQk5n8+s20CAqTn3I2gqEJdtrFRluBbbf4cQVpwJ7AWe4UwOrHKNalF9dIfzHwGN/C4hpwBtxdIh8b2StwPGzDITCkgZ7HLqwTXAMhRexgm5JWYeVGD6kby0K7sXiXM09axBnY5hQoQTKVKhdaUmBIgz4sw+LBpNZCBIuYkmb88nRbIJ4F29KOlYB6b5NdUJa0hDMmdosfEbQZaAsKAkManZhEcSFqANIW+rtvfWsmtflYYa1JPQgT6a0ZhjNWQXIzJlmr4CdjCAxpc6OOZ0GFFLPCW34TFCkoqdCMieGYH3D6tcCSZlkgoK0IFnAeWwyZWrF6nYEhaYbGI/MsQkpXCDdA6ceBItwARzuNMkmHG3CcwZBk3nNMJmNEuEEaGNLojGZq8d86aWMzo5/uHhJ1SrocZfSDwB6iToF7w2UDR+ERC+5kGnlRzNa19DW+TEkDIXSaQNsAo5VD6AgNYJEBSOPnRXCYiQsGEUR1ycF7awwNESPPYwAzr+UKwapsyiExiDIFBNFgcck2CkRVFKNMZTXVhZvgpA3bPrpY0YtauVvhAs4RpB1TawLji4IAHjCMlK4UFq5dHk+EIeQVKiiergQqVPqw8BBgi5r1HNO4Ye1Y8dqW6zC0YUgDxz3NXI+sBwwRcbDSAQyd0U6PNLEHMOhl3aCnB9kwBzBC0KM63Llp/MGR8LST5UypHsWQ9pKS1jQ83Ak8YLfhESkwR53UZ37AyWzZUaf0GVEGE2ANgqqUpIFIfNbXhj6ilZzht5xawi6GtGuznocAzpQmIqR/mUOFdOteebrOA0Ob7SVqEaoPqJWNDxUGAMdMWc8xULUqCZ+AQZlcw5C2R3WcqSUCHGAYt+VSx3fBkeuiVENWgSHHO3Dh8V25C3IikxlNSgqwjGMsRXB81617iFqpWwW1CQqiDVBRAwQ7gG6MB2zlg/LiIOygYNp16oPyojQDAWCCBNZM15AGEk+wC3hgpFhtSbAtOJ7v0i5BkQbMRzP9CLQjxl+8ZEoK5sjlUNBz1Zo6JcUMFGAJg/rLMI2TSUqKAiPI7GYtMFKsbt9LPzkqQS0CXhhDGgzQMfHz70ERxcQpLJn8Bbx9YGZxo/Z+RZv8BTicfGGzxh7XrBKTWodrmzY3FlSQ0O0CJtMg384G17D7MPuLOCWFijQYq2qyDXpuSjYlrb6BQDLiZ0wOMMtpbwziDpgN+lziTrEHYsKkxnKd2ji5rVqu2Ex+OpdfxWtJgwqy6IEfNh2m1u6QpIfyBhtsu5nkCLi4RxiXj1+qwcwwOK9lma6ZXD1sMkVU2cxtQQZgp10qtYNMUewv2IRmrtN1G6VSsetwGQXNE5qxCpIRUya9U1SrVarXGzbf7i4zV+NIAxvQBk5jSDUuXLJsFw0AT04LUl2mU/ClPLoAk1TqwKIgid9SqQNZBcnmQ0qnexTmDmTtKxxp0HRHn6GGxxCRu6dLk1bwhqsm6dyUZS9mem+pJJ1Mgj/WczwSDIzUe/IbEEjSXjKnzVBm/w48V4+cCZcnTZjJl7tdkw7XG4pzJ1K4wtRbmBzGcFnCyqpX09WazoeLJG0XktbCuI3PmKOgSEfzKqQVqnVValkLkXh6YqeVLCihW/FET6GyhUMFya0lNbUKvDRI0th0nK0jraydMYeusXHJK5GWRYr3DVua4r0rzLZeQJI2A/LEe7aDxPJSyqaifITY/Xom821rrmHthk2FgHV+rUhakOiQt/aKxQw+puCu/jEFqCBTBqi3URQMN+knHNCkMVPUWqullJ1DNpNID7s3UHaMDiSI3OOzcc0OPuARTPBW+NkSeyj9/ocQ9zdKQU7ZpAR/+VCclj35/aWkOerQ8jo4SCHwSw8qxehjKSFc5cdSaqRGncY/Z/MV9GS5X9LZX/A5VsvFhgkkAQLe/Un4gaB2o1R7MN70sLVTzAbjytAvwa9i2p9o9unqSXPk7uqwzDZteFE4iqrBZ4lKDX95WKtslBVhCFNSjjY/wJxNn9RZE7shd6+49Fgd4xiFHJlhj0/t2JwfpqRt76rF3dbCZ1nKkT12UgmLO83jh2eEk92bl+kkdMab3TmyhSD3bavTax0dn/s4Pmo1BXk6DXLQ5bgVHAozFrdarU6nJc5A3TM6OZrjNqDOM52m0+y0b47bwY4wU7GMs7XVPvKUIyPszdX5wQGax7ndeFdwnrYQxaoRmXoux6fAzRwxsy3x0ZIct4qH/Ao6Rdl8hU/f5bglHK7JlWSrOTcMRM7xiXB93BPx1mo2F/l6+u5i93rRCb4KGlPnL7GbvdbiOjcZ7zr2dg7Pj4/mPo4WV4c7OWF3BP8HWcGCWwOX9B4AAAAASUVORK5CYII=;" parent="1" vertex="1">
          <mxGeometry x="960" y="225" width="151.65" height="40" as="geometry" />
        </mxCell>
        <mxCell id="UFIDpqAqGUZScW1vrYJL-4" value="&lt;font style=&quot;font-size: 18px;&quot;&gt;Data Visualization&lt;/font&gt;" style="text;html=1;strokeColor=none;fillColor=#D4E1F5;align=center;verticalAlign=middle;whiteSpace=wrap;rounded=0;fontStyle=1" parent="1" vertex="1">
          <mxGeometry x="970.82" y="150" width="130" height="50" as="geometry" />
        </mxCell>
        <mxCell id="UFIDpqAqGUZScW1vrYJL-5" value="&lt;b&gt;4&lt;/b&gt;" style="ellipse;whiteSpace=wrap;html=1;aspect=fixed;" parent="1" vertex="1">
          <mxGeometry x="765" y="207.75" width="20" height="20" as="geometry" />
        </mxCell>
        <mxCell id="UFIDpqAqGUZScW1vrYJL-6" value="&lt;b&gt;5&lt;/b&gt;" style="ellipse;whiteSpace=wrap;html=1;aspect=fixed;" parent="1" vertex="1">
          <mxGeometry x="294.99" y="324.99999999999994" width="20" height="20" as="geometry" />
        </mxCell>
        <mxCell id="Wb23hfymfKDc6kqgdGr--1" value="" style="shape=image;verticalLabelPosition=bottom;labelBackgroundColor=default;verticalAlign=top;aspect=fixed;imageAspect=0;image=https://upload.wikimedia.org/wikipedia/commons/thumb/c/c3/Python-logo-notext.svg/1869px-Python-logo-notext.svg.png;" parent="1" vertex="1">
          <mxGeometry x="265.49" y="254.42" width="41.63" height="45.58" as="geometry" />
        </mxCell>
        <mxCell id="Wb23hfymfKDc6kqgdGr--2" style="edgeStyle=orthogonalEdgeStyle;rounded=0;orthogonalLoop=1;jettySize=auto;html=1;exitX=0.5;exitY=0;exitDx=0;exitDy=0;shape=link;" parent="1" source="UFIDpqAqGUZScW1vrYJL-1" target="Wb23hfymfKDc6kqgdGr--1" edge="1">
          <mxGeometry relative="1" as="geometry">
            <mxPoint x="372" y="255" as="targetPoint" />
            <mxPoint x="230" y="255" as="sourcePoint" />
          </mxGeometry>
        </mxCell>
        <mxCell id="Wb23hfymfKDc6kqgdGr--3" style="edgeStyle=orthogonalEdgeStyle;rounded=0;orthogonalLoop=1;jettySize=auto;html=1;shape=link;entryX=0;entryY=0.5;entryDx=0;entryDy=0;" parent="1" source="UFIDpqAqGUZScW1vrYJL-1" target="-EYPpRdThk7vaNsnPLEH-9" edge="1">
          <mxGeometry relative="1" as="geometry">
            <mxPoint x="435" y="403.15999999999997" as="targetPoint" />
            <mxPoint x="340" y="477.15999999999997" as="sourcePoint" />
          </mxGeometry>
        </mxCell>
        <mxCell id="Wb23hfymfKDc6kqgdGr--5" value="&lt;b&gt;6&lt;/b&gt;" style="ellipse;whiteSpace=wrap;html=1;aspect=fixed;" parent="1" vertex="1">
          <mxGeometry x="390" y="430.15999999999997" width="20" height="20" as="geometry" />
        </mxCell>
        <mxCell id="CqbRMOsj4nm2DKZm3uGE-2" value="&amp;nbsp;&lt;b&gt;Staging Layer&lt;/b&gt;: data with no duplication" style="rounded=0;whiteSpace=wrap;html=1;align=left;" vertex="1" parent="1">
          <mxGeometry x="715" y="306" width="220" height="30" as="geometry" />
        </mxCell>
        <mxCell id="CqbRMOsj4nm2DKZm3uGE-3" value="&amp;nbsp;&lt;b&gt;Core Layer&lt;/b&gt;: aggregation data layer" style="rounded=0;whiteSpace=wrap;html=1;align=left;" vertex="1" parent="1">
          <mxGeometry x="715" y="339" width="220" height="30" as="geometry" />
        </mxCell>
        <mxCell id="CqbRMOsj4nm2DKZm3uGE-4" value="load data from External Table" style="text;html=1;strokeColor=none;fillColor=none;align=left;verticalAlign=middle;whiteSpace=wrap;rounded=0;" vertex="1" parent="1">
          <mxGeometry x="512" y="202.75" width="90" height="30" as="geometry" />
        </mxCell>
        <mxCell id="CqbRMOsj4nm2DKZm3uGE-7" value="" style="edgeStyle=orthogonalEdgeStyle;rounded=0;orthogonalLoop=1;jettySize=auto;html=1;" edge="1" parent="1" source="-EYPpRdThk7vaNsnPLEH-10" target="CqbRMOsj4nm2DKZm3uGE-5">
          <mxGeometry relative="1" as="geometry">
            <mxPoint x="362.06999999999994" y="245" as="targetPoint" />
            <mxPoint x="220" y="245" as="sourcePoint" />
          </mxGeometry>
        </mxCell>
        <mxCell id="CqbRMOsj4nm2DKZm3uGE-5" value="" style="shape=image;verticalLabelPosition=bottom;labelBackgroundColor=default;verticalAlign=top;aspect=fixed;imageAspect=0;image=https://www.cdata.com/ui/img/logo-googlecloudstorage.png;" vertex="1" parent="1">
          <mxGeometry x="340" y="207.75" width="149" height="74.5" as="geometry" />
        </mxCell>
        <mxCell id="CqbRMOsj4nm2DKZm3uGE-9" value="daily scheduler&lt;br&gt;to ingest moving forward data" style="text;html=1;strokeColor=none;fillColor=none;align=left;verticalAlign=middle;whiteSpace=wrap;rounded=0;" vertex="1" parent="1">
          <mxGeometry x="320" y="321.5" width="103.01" height="45" as="geometry" />
        </mxCell>
        <mxCell id="CqbRMOsj4nm2DKZm3uGE-10" value="daily scheduler&lt;br&gt;to run incremental dbt model for moving forward data" style="text;html=1;strokeColor=none;fillColor=none;align=left;verticalAlign=middle;whiteSpace=wrap;rounded=0;" vertex="1" parent="1">
          <mxGeometry x="416.82" y="430.15999999999997" width="178.18" height="45" as="geometry" />
        </mxCell>
        <mxCell id="CqbRMOsj4nm2DKZm3uGE-11" value="ingest historical data" style="text;html=1;strokeColor=none;fillColor=none;align=left;verticalAlign=middle;whiteSpace=wrap;rounded=0;" vertex="1" parent="1">
          <mxGeometry x="261.82" y="195.25" width="78.18" height="45" as="geometry" />
        </mxCell>
        <mxCell id="CqbRMOsj4nm2DKZm3uGE-12" value="&lt;font style=&quot;font-size: 18px;&quot;&gt;Data Transformation&lt;/font&gt;" style="text;html=1;strokeColor=none;fillColor=#D4E1F5;align=center;verticalAlign=middle;whiteSpace=wrap;rounded=0;fontStyle=1" vertex="1" parent="1">
          <mxGeometry x="625" y="450.16" width="140" height="50" as="geometry" />
        </mxCell>
        <mxCell id="CqbRMOsj4nm2DKZm3uGE-13" value="&lt;font style=&quot;font-size: 18px;&quot;&gt;Workflow Tool&lt;/font&gt;" style="text;html=1;strokeColor=none;fillColor=#D4E1F5;align=center;verticalAlign=middle;whiteSpace=wrap;rounded=0;fontStyle=1" vertex="1" parent="1">
          <mxGeometry x="216.99" y="450.16" width="140" height="50" as="geometry" />
        </mxCell>
        <mxCell id="CqbRMOsj4nm2DKZm3uGE-14" value="implement data transformation with dbt" style="text;html=1;strokeColor=none;fillColor=none;align=left;verticalAlign=middle;whiteSpace=wrap;rounded=0;" vertex="1" parent="1">
          <mxGeometry x="600" y="329" width="90" height="30" as="geometry" />
        </mxCell>
        <mxCell id="CqbRMOsj4nm2DKZm3uGE-16" value="visualize data (Core Layer) to Looker" style="text;html=1;strokeColor=none;fillColor=none;align=left;verticalAlign=middle;whiteSpace=wrap;rounded=0;" vertex="1" parent="1">
          <mxGeometry x="790" y="204" width="152" height="30" as="geometry" />
        </mxCell>
      </root>
    </mxGraphModel>
  </diagram>
  <diagram id="eS616tgA3NaswDQ-y6J0" name="modeling layer">
    <mxGraphModel dx="1354" dy="1696" grid="1" gridSize="10" guides="1" tooltips="1" connect="1" arrows="1" fold="1" page="1" pageScale="1" pageWidth="850" pageHeight="1100" math="0" shadow="0">
      <root>
        <mxCell id="0" />
        <mxCell id="1" parent="0" />
        <mxCell id="Bp2XejbKosPac0j4jcEC-1" value="&lt;div style=&quot;&quot;&gt;&lt;span style=&quot;background-color: initial;&quot;&gt;Interesting metrics (2020-2022):&amp;nbsp;&lt;/span&gt;&lt;/div&gt;&lt;div style=&quot;&quot;&gt;&lt;span style=&quot;background-color: initial;&quot;&gt;user&#39;s metrics:&lt;/span&gt;&lt;/div&gt;&lt;div style=&quot;&quot;&gt;&lt;span style=&quot;background-color: initial;&quot;&gt;- number of new users&amp;nbsp;&lt;/span&gt;&lt;br&gt;&lt;/div&gt;&lt;div style=&quot;&quot;&gt;&lt;span style=&quot;background-color: initial;&quot;&gt;- number of returning users&lt;/span&gt;&lt;/div&gt;&lt;div style=&quot;&quot;&gt;&lt;span style=&quot;background-color: initial;&quot;&gt;- number of&amp;nbsp;&lt;/span&gt;&lt;/div&gt;&lt;div style=&quot;&quot;&gt;&lt;span style=&quot;background-color: initial;&quot;&gt;&lt;br&gt;&lt;/span&gt;&lt;/div&gt;&lt;div style=&quot;&quot;&gt;&lt;span style=&quot;background-color: initial;&quot;&gt;- top active actors with push event&lt;/span&gt;&lt;/div&gt;&lt;div style=&quot;&quot;&gt;&lt;span style=&quot;background-color: initial;&quot;&gt;- most active repository (push)&lt;/span&gt;&lt;/div&gt;&lt;div style=&quot;&quot;&gt;&lt;span style=&quot;background-color: initial;&quot;&gt;- most starred repository&lt;/span&gt;&lt;/div&gt;&lt;div style=&quot;&quot;&gt;&lt;span style=&quot;background-color: initial;&quot;&gt;- most&amp;nbsp;&lt;/span&gt;&lt;/div&gt;" style="text;html=1;strokeColor=none;fillColor=none;align=left;verticalAlign=middle;whiteSpace=wrap;rounded=0;" vertex="1" parent="1">
          <mxGeometry x="40" y="-10" width="290" height="220" as="geometry" />
        </mxCell>
        <mxCell id="Bp2XejbKosPac0j4jcEC-2" value="dim_actors" style="rounded=0;whiteSpace=wrap;html=1;" vertex="1" parent="1">
          <mxGeometry x="40" y="250" width="120" height="60" as="geometry" />
        </mxCell>
        <mxCell id="Bp2XejbKosPac0j4jcEC-3" value="dim_repos" style="rounded=0;whiteSpace=wrap;html=1;" vertex="1" parent="1">
          <mxGeometry x="340" y="250" width="120" height="60" as="geometry" />
        </mxCell>
        <mxCell id="Bp2XejbKosPac0j4jcEC-4" value="fact_events" style="rounded=0;whiteSpace=wrap;html=1;" vertex="1" parent="1">
          <mxGeometry x="185" y="350" width="120" height="60" as="geometry" />
        </mxCell>
        <mxCell id="Bp2XejbKosPac0j4jcEC-5" value="dim_daily_new_commits" style="rounded=0;whiteSpace=wrap;html=1;" vertex="1" parent="1">
          <mxGeometry x="10" y="440" width="150" height="60" as="geometry" />
        </mxCell>
        <mxCell id="Bp2XejbKosPac0j4jcEC-6" value="dim_daily_new_users" style="rounded=0;whiteSpace=wrap;html=1;" vertex="1" parent="1">
          <mxGeometry x="340" y="440" width="140" height="60" as="geometry" />
        </mxCell>
        <mxCell id="Bp2XejbKosPac0j4jcEC-7" value="&lt;b&gt;CORE&lt;/b&gt;" style="text;html=1;strokeColor=none;fillColor=none;align=center;verticalAlign=middle;whiteSpace=wrap;rounded=0;" vertex="1" parent="1">
          <mxGeometry y="190" width="60" height="30" as="geometry" />
        </mxCell>
        <mxCell id="Bp2XejbKosPac0j4jcEC-8" value="&lt;b&gt;STAGING&lt;/b&gt;" style="text;html=1;strokeColor=none;fillColor=none;align=center;verticalAlign=middle;whiteSpace=wrap;rounded=0;" vertex="1" parent="1">
          <mxGeometry x="10" y="-350" width="60" height="30" as="geometry" />
        </mxCell>
        <mxCell id="Bp2XejbKosPac0j4jcEC-9" value="- idempotence guarantee -&amp;gt; remove duplicate values in dim_actors and dim_repos" style="text;html=1;strokeColor=none;fillColor=none;align=left;verticalAlign=middle;whiteSpace=wrap;rounded=0;" vertex="1" parent="1">
          <mxGeometry x="15" y="-320" width="290" height="50" as="geometry" />
        </mxCell>
      </root>
    </mxGraphModel>
  </diagram>
</mxfile>
